<?xml version="1.0" encoding="utf-8"?>
<!-- Generator: Adobe Illustrator 15.1.0, SVG Export Plug-In . SVG Version: 6.00 Build 0)  -->
<!DOCTYPE svg PUBLIC "-//W3C//DTD SVG 1.1//EN" "http://www.w3.org/Graphics/SVG/1.1/DTD/svg11.dtd">
<svg version="1.1" id="Layer_1" xmlns="http://www.w3.org/2000/svg" xmlns:xlink="http://www.w3.org/1999/xlink" x="0px" y="0px"
	 width="260px" height="90px" viewBox="0 0 260 90" enable-background="new 0 0 260 90" xml:space="preserve">
<g>
	<g>
		<path fill="#121617" d="M89.513,11.315c4.698,0,8.307,0.828,10.825,2.48c2.517,1.652,3.776,4.358,3.776,8.118
			c0,3.792-1.273,6.527-3.822,8.21c-2.546,1.685-6.186,2.523-10.917,2.523h-2.227v10.555H80.05V12.134
			c1.548-0.303,3.184-0.516,4.912-0.636C86.691,11.376,88.208,11.315,89.513,11.315z M89.967,17.366
			c-0.516,0-1.023,0.015-1.524,0.043c-0.5,0.032-0.932,0.062-1.296,0.094v9.097h2.227c2.457,0,4.306-0.333,5.55-1.001
			c1.243-0.667,1.865-1.91,1.865-3.73c0-0.879-0.159-1.606-0.478-2.184c-0.318-0.576-0.774-1.038-1.365-1.387
			c-0.59-0.35-1.311-0.592-2.16-0.729C91.937,17.434,90.996,17.366,89.967,17.366z"/>
		<path fill="#121617" d="M127.399,43.202c-0.351-1.095-0.727-2.22-1.13-3.374c-0.404-1.156-0.807-2.306-1.207-3.448H112.75
			c-0.398,1.15-0.795,2.3-1.196,3.457c-0.4,1.156-0.774,2.277-1.117,3.366h-7.369c1.187-3.396,2.312-6.533,3.376-9.416
			c1.064-2.881,2.107-5.595,3.125-8.142c1.02-2.549,2.022-4.966,3.011-7.254c0.989-2.291,2.016-4.528,3.081-6.71h6.728
			c1.035,2.182,2.056,4.419,3.062,6.71c1.004,2.289,2.017,4.706,3.039,7.254c1.021,2.547,2.063,5.261,3.129,8.142
			c1.066,2.882,2.193,6.019,3.382,9.416H127.399z M118.874,18.821c-0.159,0.458-0.39,1.08-0.696,1.869
			c-0.304,0.787-0.651,1.699-1.041,2.732c-0.39,1.03-0.826,2.167-1.307,3.41c-0.481,1.242-0.97,2.543-1.468,3.906h9.016
			c-0.482-1.365-0.95-2.672-1.404-3.918c-0.45-1.247-0.88-2.384-1.288-3.417c-0.407-1.033-0.764-1.943-1.07-2.73
			C119.311,19.885,119.063,19.268,118.874,18.821z"/>
		<path fill="#121617" d="M148.282,11.315c4.73,0,8.354,0.841,10.871,2.523c2.515,1.685,3.772,4.299,3.772,7.848
			c0,2.213-0.504,4.009-1.522,5.39c-1.017,1.38-2.479,2.463-4.389,3.252c0.636,0.789,1.304,1.691,2.003,2.706
			c0.695,1.016,1.386,2.08,2.067,3.186c0.683,1.107,1.343,2.258,1.977,3.456c0.639,1.199,1.231,2.375,1.777,3.526h-7.934
			c-0.58-1.031-1.164-2.077-1.758-3.139c-0.594-1.061-1.203-2.092-1.827-3.093c-0.624-1.002-1.239-1.947-1.849-2.843
			c-0.608-0.894-1.218-1.706-1.829-2.434h-3.5v11.509h-7.096V12.134c1.547-0.303,3.146-0.516,4.797-0.636
			C145.498,11.376,146.975,11.315,148.282,11.315z M148.688,17.366c-0.516,0-0.978,0.015-1.385,0.043
			c-0.411,0.032-0.798,0.062-1.161,0.094v8.55h2.001c2.668,0,4.578-0.333,5.731-1c1.153-0.667,1.729-1.803,1.729-3.412
			c0-1.546-0.584-2.645-1.754-3.297C152.686,17.69,150.963,17.366,148.688,17.366z"/>
		<path fill="#121617" d="M187.97,43.202c-0.641-1.025-1.391-2.134-2.263-3.326c-0.864-1.19-1.798-2.391-2.803-3.602
			c-0.997-1.21-2.043-2.372-3.143-3.482c-1.092-1.108-2.186-2.089-3.279-2.941v13.351h-7.097V11.68h7.097v11.847
			c1.824-1.917,3.677-3.92,5.557-6.012c1.886-2.092,3.626-4.037,5.218-5.834h8.422c-2.144,2.554-4.306,5.01-6.475,7.368
			c-2.172,2.358-4.457,4.731-6.852,7.119c2.521,2.105,4.951,4.599,7.293,7.487c2.345,2.886,4.595,6.068,6.761,9.548H187.97z"/>
		<path fill="#121617" d="M200.951,11.68h3.095v31.522h-3.095V11.68z"/>
		<path fill="#121617" d="M212.053,11.68c0.909,2.699,1.788,5.252,2.64,7.662c0.854,2.41,1.692,4.744,2.514,7.002
			c0.822,2.259,1.654,4.473,2.497,6.643c0.842,2.171,1.758,4.363,2.744,6.577c0.94-2.177,1.843-4.352,2.695-6.522
			c0.86-2.169,1.713-4.385,2.548-6.641c0.846-2.258,1.68-4.598,2.525-7.023c0.838-2.422,1.713-4.988,2.627-7.697h3.273
			c-1.385,3.986-2.643,7.477-3.761,10.475c-1.118,2.998-2.153,5.711-3.102,8.14s-1.85,4.668-2.709,6.715
			c-0.869,2.047-1.773,4.111-2.713,6.192h-2.901c-0.922-2.101-1.82-4.176-2.702-6.223c-0.886-2.045-1.809-4.279-2.773-6.702
			c-0.961-2.422-1.998-5.135-3.109-8.135c-1.105-3.002-2.356-6.489-3.748-10.463H212.053z"/>
		<path fill="#121617" d="M240.619,43.202V11.68h18.195v2.684h-15.102v10.962h13.468v2.638h-13.468v12.555H260v2.684H240.619z
			 M255.995,3.264l-7.78,6.322l-1.498-1.729l7.183-6.913L255.995,3.264z"/>
	</g>
	<g>
		<path fill="#5A5E5E" d="M101.057,48.427c0.137,0,0.274,0.049,0.411,0.148c0.137,0.1,0.206,0.219,0.206,0.361
			c0,0.141-0.08,0.365-0.238,0.674c-0.159,0.309-0.431,0.805-0.816,1.484c-0.386,0.682-0.716,1.297-0.99,1.846
			c-0.275,0.549-0.534,1.086-0.778,1.613c-0.244,0.527-0.437,0.947-0.579,1.26c-0.141,0.313-0.281,0.609-0.417,0.895
			c-0.274,0.521-0.501,0.783-0.681,0.783c-0.104,0-0.228-0.084-0.374-0.25c-0.146-0.168-0.262-0.357-0.347-0.572
			c-0.231-0.574-0.542-1.904-0.932-3.986s-0.585-3.367-0.585-3.857c0-0.266,0.073-0.398,0.219-0.398c0.18,0,0.364,0.094,0.552,0.277
			s0.338,0.418,0.45,0.701c0.051,0.154,0.178,1.01,0.379,2.564c0.202,1.555,0.431,2.82,0.688,3.799
			c0.549-1.551,1.255-3.162,2.121-4.834S100.782,48.427,101.057,48.427z"/>
		<path fill="#5A5E5E" d="M101.796,53.39c0.296-0.668,0.686-1.219,1.17-1.652c0.483-0.432,0.981-0.648,1.491-0.648
			c0.51,0,0.937,0.217,1.279,0.648c0.342,0.434,0.514,0.961,0.514,1.582s-0.15,1.256-0.45,1.902c-0.3,0.646-0.713,1.184-1.241,1.607
			c-0.526,0.424-1.086,0.637-1.677,0.637c-0.437,0-0.802-0.201-1.093-0.605c-0.292-0.402-0.437-0.914-0.437-1.535
			S101.5,54.058,101.796,53.39z M105.17,53.274c0-0.293-0.046-0.568-0.142-0.83c-0.094-0.262-0.231-0.451-0.411-0.572
			c-0.591,0.164-1.099,0.619-1.523,1.369c-0.424,0.752-0.637,1.457-0.637,2.115c0,0.66,0.163,1.072,0.489,1.234
			c0.617-0.121,1.142-0.543,1.575-1.266C104.954,54.601,105.17,53.917,105.17,53.274z"/>
		<path fill="#5A5E5E" d="M108.552,56.181c0,0.162,0.094,0.242,0.283,0.242c0.326,0,0.722-0.092,1.189-0.275
			s0.727-0.277,0.778-0.277c0.154,0,0.232,0.082,0.232,0.246c0,0.248-0.256,0.535-0.766,0.861c-0.51,0.324-0.973,0.488-1.388,0.488
			c-0.416,0-0.761-0.115-1.035-0.342s-0.412-0.459-0.412-0.701c0-0.238,0.052-0.545,0.155-0.918c0.103-0.373,0.25-0.865,0.443-1.479
			s0.344-1.121,0.456-1.523c-0.403,0.096-0.673,0.143-0.81,0.143c-0.137,0-0.272-0.072-0.405-0.213
			c-0.133-0.143-0.199-0.275-0.199-0.404c0-0.207,0.557-0.404,1.671-0.592c0.155-0.711,0.231-1.342,0.231-1.891
			c0-0.256,0.086-0.385,0.258-0.385c0.146,0,0.326,0.092,0.54,0.275c0.213,0.186,0.321,0.393,0.321,0.623
			c0,0.232-0.072,0.639-0.218,1.223c0.489-0.043,0.879-0.064,1.17-0.064c0.514,0,0.771,0.111,0.771,0.334
			c0,0.129-0.14,0.236-0.418,0.32c-0.278,0.086-0.863,0.219-1.755,0.398c-0.18,0.678-0.407,1.451-0.681,2.32
			C108.689,55.462,108.552,55.991,108.552,56.181z"/>
		<path fill="#5A5E5E" d="M112.858,52.657l-0.038-0.965c0-0.402,0.095-0.604,0.282-0.604c0.163,0,0.32,0.105,0.47,0.314
			c0.15,0.211,0.225,0.459,0.225,0.746s-0.008,0.504-0.026,0.648c0.746-1.131,1.453-1.697,2.121-1.697c0.42,0,0.63,0.104,0.63,0.309
			c0,0.104-0.047,0.199-0.141,0.283c-0.094,0.086-0.244,0.186-0.45,0.297c-0.454,0.197-0.838,0.498-1.15,0.906
			c-0.313,0.406-0.568,0.867-0.765,1.381c-0.197,0.514-0.354,0.947-0.469,1.299c-0.116,0.352-0.204,0.625-0.264,0.824
			c-0.06,0.195-0.128,0.389-0.206,0.578c-0.137,0.342-0.295,0.514-0.476,0.514c-0.146,0-0.264-0.084-0.354-0.25
			c-0.09-0.168-0.135-0.332-0.135-0.49s0.073-0.473,0.218-0.943C112.683,54.726,112.858,53.677,112.858,52.657z"/>
		<path fill="#5A5E5E" d="M121.473,53.216c0,0.459-0.247,0.832-0.74,1.119s-1.049,0.43-1.671,0.43c-0.621,0-1.186-0.066-1.69-0.205
			c-0.121,0.377-0.18,0.715-0.18,1.01s0.092,0.525,0.276,0.688c0.185,0.162,0.489,0.244,0.914,0.244
			c0.424,0,0.861-0.076,1.311-0.225c0.45-0.15,0.696-0.225,0.74-0.225c0.223,0,0.334,0.086,0.334,0.256
			c0,0.232-0.262,0.482-0.785,0.754c-0.522,0.27-1.033,0.404-1.529,0.404c-0.668,0-1.213-0.199-1.632-0.6
			c-0.42-0.398-0.631-0.9-0.631-1.51c0-0.607,0.163-1.244,0.488-1.908c0.327-0.664,0.746-1.225,1.261-1.678
			c0.514-0.455,1.023-0.682,1.53-0.682c0.505,0,0.966,0.24,1.382,0.721C121.265,52.288,121.473,52.759,121.473,53.216z
			 M119.531,52.104c-0.317,0-0.646,0.164-0.99,0.496c-0.343,0.328-0.634,0.738-0.874,1.227c0.342,0.076,0.732,0.115,1.17,0.115
			s0.818-0.07,1.144-0.211c0.327-0.143,0.489-0.328,0.489-0.561c0-0.23-0.104-0.467-0.315-0.705
			C119.944,52.224,119.737,52.104,119.531,52.104z"/>
		<path fill="#5A5E5E" d="M131.719,51.089c0.146,0,0.288,0.053,0.425,0.16s0.205,0.225,0.205,0.354c0,0.232-0.311,1.033-0.932,2.404
			c-0.622,1.371-1.063,2.295-1.324,2.771c-0.262,0.475-0.49,0.713-0.688,0.713c-0.111,0-0.249-0.082-0.412-0.244
			c-0.162-0.164-0.283-0.34-0.36-0.527c-0.231-0.539-0.48-1.41-0.746-2.609c-0.266-1.199-0.397-2.078-0.397-2.637
			c0-0.256,0.076-0.385,0.231-0.385c0.188,0,0.381,0.08,0.579,0.238c0.197,0.158,0.333,0.357,0.411,0.598
			c0.025,0.137,0.06,0.48,0.103,1.029c0.121,1.354,0.325,2.395,0.618,3.123c0.231-0.496,0.527-1.201,0.887-2.115
			c0.36-0.912,0.653-1.619,0.881-2.121S131.598,51.089,131.719,51.089z"/>
		<path fill="#5A5E5E" d="M133.216,53.39c0.297-0.668,0.687-1.219,1.172-1.652c0.482-0.432,0.979-0.648,1.49-0.648
			c0.509,0,0.937,0.217,1.279,0.648c0.342,0.434,0.515,0.961,0.515,1.582s-0.15,1.256-0.451,1.902
			c-0.3,0.646-0.714,1.184-1.24,1.607c-0.527,0.424-1.086,0.637-1.678,0.637c-0.437,0-0.802-0.201-1.093-0.605
			c-0.291-0.402-0.438-0.914-0.438-1.535S132.921,54.058,133.216,53.39z M136.592,53.274c0-0.293-0.048-0.568-0.142-0.83
			c-0.096-0.262-0.231-0.451-0.411-0.572c-0.593,0.164-1.1,0.619-1.524,1.369c-0.424,0.752-0.637,1.457-0.637,2.115
			c0,0.66,0.163,1.072,0.489,1.234c0.616-0.121,1.143-0.543,1.574-1.266C136.375,54.601,136.592,53.917,136.592,53.274z"/>
		<path fill="#5A5E5E" d="M143.561,51.089c0.136,0,0.284,0.1,0.442,0.303c0.159,0.201,0.239,0.426,0.239,0.674
			c0,0.172-0.176,0.756-0.528,1.75c-0.351,0.992-0.589,1.668-0.713,2.023c-0.125,0.355-0.292,0.828-0.501,1.414
			c-0.211,0.588-0.415,1.16-0.611,1.717c-0.429,1.225-1.071,1.84-1.929,1.84c-0.489,0-0.956-0.148-1.4-0.445
			c-0.445-0.295-0.669-0.602-0.669-0.918c0-0.121,0.054-0.254,0.161-0.4c0.105-0.145,0.198-0.219,0.275-0.219
			s0.201,0.096,0.373,0.285c0.497,0.564,0.921,0.848,1.272,0.848c0.267,0,0.506-0.234,0.72-0.701
			c0.215-0.467,0.418-0.994,0.611-1.582c0.193-0.586,0.301-0.91,0.321-0.969c0.021-0.063,0.047-0.139,0.077-0.232
			s0.058-0.18,0.084-0.256c-0.608,0.83-1.208,1.246-1.801,1.246c-0.36,0-0.691-0.168-0.996-0.502s-0.456-0.729-0.456-1.182
			c0-0.455,0.11-1.068,0.333-1.84s0.484-1.439,0.785-2.004c0.3-0.566,0.545-0.85,0.732-0.85c0.155,0,0.299,0.07,0.432,0.213
			c0.133,0.141,0.199,0.285,0.199,0.43c0,0.146-0.111,0.449-0.334,0.914c-0.695,1.422-1.041,2.525-1.041,3.316
			c0,0.137,0.042,0.25,0.128,0.34c0.084,0.09,0.188,0.137,0.309,0.137c0.308,0,0.677-0.275,1.105-0.824s0.823-1.199,1.183-1.955
			c0.3-0.635,0.612-1.443,0.939-2.43C143.336,51.136,143.423,51.089,143.561,51.089z"/>
		<path fill="#5A5E5E" d="M149.05,51.675c0.326,0.389,0.488,0.74,0.488,1.055c0,0.311-0.106,0.631-0.321,0.955
			c0.103,0.131,0.155,0.24,0.155,0.334c0,0.242-0.055,0.652-0.161,1.236c-0.107,0.582-0.173,0.965-0.193,1.145
			c-0.021,0.18-0.041,0.322-0.059,0.43c-0.017,0.107-0.038,0.213-0.063,0.314c-0.035,0.215-0.112,0.322-0.231,0.322
			c-0.154,0-0.282-0.135-0.379-0.404c-0.099-0.271-0.156-0.619-0.174-1.049c-0.763,0.969-1.471,1.453-2.121,1.453
			c-0.396,0-0.783-0.17-1.164-0.508c-0.382-0.338-0.572-0.688-0.572-1.049c0-0.514,0.188-1.15,0.566-1.908
			c0.376-0.76,0.865-1.434,1.466-2.025c0.6-0.592,1.165-0.887,1.696-0.887C148.368,51.089,148.724,51.284,149.05,51.675z
			 M148.574,53.353c0-0.797-0.159-1.195-0.477-1.195c-0.333,0-0.724,0.236-1.169,0.713c-0.445,0.475-0.823,1.014-1.132,1.613
			c-0.308,0.6-0.463,1.076-0.463,1.426c0,0.146,0.06,0.264,0.18,0.354s0.262,0.137,0.425,0.137c0.402,0,0.856-0.273,1.362-0.818
			c0.507-0.543,0.856-1.205,1.055-1.984c0.024-0.131,0.099-0.207,0.219-0.232V53.353z"/>
		<path fill="#5A5E5E" d="M155.684,53.995c0,0.342-0.149,0.73-0.449,1.168c-0.231,0.523-0.48,1.277-0.747,2.258
			c-0.266,0.982-0.488,1.682-0.668,2.102c-0.36,0.873-0.913,1.311-1.658,1.311c-0.609,0-1.121-0.164-1.537-0.494
			c-0.415-0.33-0.623-0.658-0.623-0.984c0-0.137,0.041-0.273,0.121-0.41c0.082-0.137,0.168-0.205,0.258-0.205
			c0.091,0,0.191,0.064,0.303,0.191c0.111,0.129,0.217,0.268,0.314,0.418c0.099,0.15,0.249,0.289,0.45,0.418
			c0.2,0.129,0.396,0.193,0.585,0.193s0.329-0.027,0.425-0.084c0.095-0.057,0.184-0.146,0.27-0.27
			c0.087-0.125,0.158-0.25,0.219-0.373c0.06-0.125,0.126-0.301,0.199-0.527s0.131-0.422,0.174-0.586
			c0.043-0.162,0.103-0.391,0.18-0.688c0.077-0.295,0.142-0.533,0.192-0.713c-0.669,0.498-1.213,0.746-1.632,0.746
			c-0.421,0-0.785-0.17-1.094-0.508s-0.463-0.732-0.463-1.184c0-0.449,0.17-1.049,0.509-1.793c0.339-0.746,0.794-1.414,1.369-2.006
			c0.574-0.592,1.135-0.887,1.684-0.887c0.352,0,0.646,0.133,0.888,0.398c0.394,0.438,0.591,1.059,0.591,1.865
			c0,0.102-0.004,0.174-0.013,0.217C155.632,53.716,155.684,53.856,155.684,53.995z M151.543,55.909
			c0,0.146,0.048,0.264,0.142,0.354c0.095,0.09,0.215,0.137,0.359,0.137c0.43,0,0.936-0.256,1.518-0.766
			c0.583-0.51,0.995-1.104,1.235-1.781c-0.035-0.111-0.064-0.283-0.091-0.514c-0.024-0.232-0.051-0.416-0.077-0.553
			c-0.025-0.137-0.082-0.275-0.166-0.418c-0.086-0.143-0.198-0.211-0.335-0.211c-0.334,0-0.711,0.238-1.131,0.719
			c-0.421,0.48-0.767,1.016-1.042,1.607C151.681,55.075,151.543,55.55,151.543,55.909z"/>
		<path fill="#5A5E5E" d="M161.829,53.216c0,0.459-0.246,0.832-0.739,1.119s-1.049,0.43-1.671,0.43s-1.186-0.066-1.691-0.205
			c-0.12,0.377-0.18,0.715-0.18,1.01s0.093,0.525,0.276,0.688c0.185,0.162,0.488,0.244,0.913,0.244s0.861-0.076,1.312-0.225
			c0.449-0.15,0.696-0.225,0.739-0.225c0.222,0,0.334,0.086,0.334,0.256c0,0.232-0.261,0.482-0.785,0.754
			c-0.521,0.27-1.032,0.404-1.529,0.404c-0.668,0-1.213-0.199-1.633-0.6c-0.42-0.398-0.63-0.9-0.63-1.51
			c0-0.607,0.163-1.244,0.488-1.908c0.327-0.664,0.746-1.225,1.261-1.678c0.514-0.455,1.022-0.682,1.53-0.682
			c0.505,0,0.965,0.24,1.382,0.721C161.621,52.288,161.829,52.759,161.829,53.216z M159.888,52.104c-0.317,0-0.646,0.164-0.99,0.496
			c-0.343,0.328-0.634,0.738-0.873,1.227c0.342,0.076,0.731,0.115,1.169,0.115s0.818-0.07,1.144-0.211
			c0.327-0.143,0.489-0.328,0.489-0.561c0-0.23-0.104-0.467-0.315-0.705C160.301,52.224,160.094,52.104,159.888,52.104z"/>
		<path fill="#5A5E5E" d="M169.716,57.466c-0.502,0-0.971-0.195-1.408-0.584c-0.437-0.391-0.655-0.854-0.655-1.391
			c0-0.533,0.18-1.154,0.54-1.857c0.359-0.701,0.825-1.303,1.395-1.799c0.57-0.496,1.125-0.746,1.665-0.746
			c0.352,0,0.66,0.158,0.927,0.475c0.265,0.318,0.398,0.598,0.398,0.836c0,0.07-0.022,0.127-0.065,0.174s-0.104,0.072-0.187,0.072
			c-0.081,0-0.225-0.078-0.431-0.232c-0.205-0.154-0.391-0.232-0.553-0.232c-0.462,0-1.003,0.408-1.619,1.223
			c-0.618,0.814-0.926,1.525-0.926,2.133c0,0.266,0.083,0.477,0.249,0.631c0.168,0.154,0.438,0.232,0.812,0.232
			c0.372,0,0.715-0.047,1.028-0.137s0.555-0.18,0.726-0.27c0.173-0.09,0.306-0.135,0.399-0.135c0.162,0,0.243,0.082,0.243,0.244
			c0,0.248-0.296,0.537-0.893,0.867C170.766,57.3,170.218,57.466,169.716,57.466z"/>
		<path fill="#5A5E5E" d="M173.868,53.39c0.296-0.668,0.686-1.219,1.17-1.652c0.484-0.432,0.98-0.648,1.491-0.648
			c0.51,0,0.937,0.217,1.28,0.648c0.342,0.434,0.513,0.961,0.513,1.582s-0.149,1.256-0.449,1.902
			c-0.301,0.646-0.714,1.184-1.241,1.607c-0.526,0.424-1.086,0.637-1.678,0.637c-0.438,0-0.801-0.201-1.092-0.605
			c-0.292-0.402-0.438-0.914-0.438-1.535S173.572,54.058,173.868,53.39z M177.243,53.274c0-0.293-0.048-0.568-0.141-0.83
			c-0.096-0.262-0.231-0.451-0.412-0.572c-0.593,0.164-1.1,0.619-1.524,1.369c-0.423,0.752-0.636,1.457-0.636,2.115
			c0,0.66,0.163,1.072,0.488,1.234c0.617-0.121,1.144-0.543,1.574-1.266C177.026,54.601,177.243,53.917,177.243,53.274z"/>
		<path fill="#5A5E5E" d="M187.503,51.089c0.258,0,0.486,0.178,0.688,0.533c0.2,0.355,0.301,0.76,0.301,1.209
			s-0.078,1.035-0.237,1.754c-0.159,0.721-0.37,1.381-0.636,1.98c-0.267,0.6-0.528,0.9-0.785,0.9c-0.181,0-0.27-0.119-0.27-0.354
			s0.148-0.814,0.443-1.736c0.296-0.922,0.443-1.654,0.443-2.197c0-0.545-0.085-0.818-0.258-0.818c-0.214,0-0.46,0.189-0.737,0.566
			c-0.279,0.377-0.577,0.832-0.894,1.363c-0.317,0.531-0.488,0.816-0.516,0.855c-0.024,0.039-0.058,0.092-0.097,0.16
			c-0.037,0.068-0.081,0.141-0.128,0.219c-0.047,0.076-0.167,0.309-0.36,0.695c-0.192,0.385-0.361,0.686-0.507,0.904
			c-0.147,0.219-0.272,0.328-0.38,0.328s-0.225-0.068-0.354-0.205s-0.193-0.266-0.193-0.387c0-0.119,0.078-0.367,0.231-0.744
			c0.446-1.115,0.669-2.152,0.669-3.111c0-0.18-0.039-0.334-0.114-0.457c-0.078-0.125-0.163-0.188-0.258-0.188
			s-0.193,0.041-0.297,0.123c-0.102,0.082-0.231,0.227-0.385,0.438c-0.154,0.211-0.292,0.408-0.412,0.598
			c-0.119,0.189-0.302,0.482-0.546,0.881s-0.429,0.695-0.553,0.887c-0.125,0.193-0.268,0.416-0.431,0.67
			c-0.163,0.252-0.289,0.447-0.379,0.584c-0.091,0.137-0.192,0.287-0.303,0.449c-0.231,0.316-0.4,0.477-0.509,0.477
			c-0.106,0-0.245-0.096-0.417-0.289s-0.257-0.338-0.257-0.438s0.018-0.221,0.051-0.367c0.034-0.145,0.071-0.287,0.11-0.424
			c0.038-0.137,0.099-0.342,0.18-0.611s0.176-0.586,0.282-0.951c0.107-0.363,0.188-0.865,0.245-1.504
			c0.056-0.637,0.096-1.105,0.122-1.4c0.024-0.297,0.099-0.443,0.218-0.443c0.189,0,0.376,0.098,0.56,0.295s0.276,0.395,0.276,0.592
			c0,0.754-0.282,1.996-0.849,3.727c0.959-1.799,1.564-2.865,1.813-3.201c0.247-0.332,0.462-0.604,0.643-0.809
			c0.335-0.369,0.673-0.553,1.016-0.553c0.205,0,0.451,0.178,0.739,0.533c0.287,0.355,0.43,0.715,0.43,1.074
			s-0.05,0.805-0.152,1.338C185.763,52.069,186.681,51.089,187.503,51.089z"/>
		<path fill="#5A5E5E" d="M197.736,51.089c0.258,0,0.486,0.178,0.688,0.533c0.2,0.355,0.301,0.76,0.301,1.209
			s-0.078,1.035-0.237,1.754c-0.159,0.721-0.37,1.381-0.636,1.98c-0.267,0.6-0.527,0.9-0.784,0.9c-0.18,0-0.271-0.119-0.271-0.354
			s0.148-0.814,0.443-1.736c0.297-0.922,0.443-1.654,0.443-2.197c0-0.545-0.085-0.818-0.257-0.818c-0.214,0-0.461,0.189-0.738,0.566
			c-0.279,0.377-0.577,0.832-0.894,1.363c-0.317,0.531-0.488,0.816-0.516,0.855c-0.024,0.039-0.058,0.092-0.096,0.16
			s-0.082,0.141-0.129,0.219c-0.047,0.076-0.167,0.309-0.359,0.695c-0.193,0.385-0.362,0.686-0.508,0.904
			c-0.146,0.219-0.272,0.328-0.38,0.328s-0.225-0.068-0.354-0.205c-0.128-0.137-0.193-0.266-0.193-0.387
			c0-0.119,0.078-0.367,0.232-0.744c0.445-1.115,0.668-2.152,0.668-3.111c0-0.18-0.039-0.334-0.114-0.457
			c-0.078-0.125-0.163-0.188-0.258-0.188s-0.193,0.041-0.296,0.123s-0.232,0.227-0.385,0.438c-0.155,0.211-0.293,0.408-0.413,0.598
			c-0.119,0.189-0.302,0.482-0.546,0.881c-0.243,0.398-0.429,0.695-0.553,0.887c-0.124,0.193-0.268,0.416-0.431,0.67
			c-0.163,0.252-0.289,0.447-0.379,0.584c-0.091,0.137-0.191,0.287-0.302,0.449c-0.232,0.316-0.401,0.477-0.51,0.477
			c-0.106,0-0.245-0.096-0.416-0.289c-0.173-0.193-0.258-0.338-0.258-0.438s0.018-0.221,0.051-0.367
			c0.034-0.145,0.071-0.287,0.11-0.424s0.099-0.342,0.18-0.611c0.082-0.27,0.176-0.586,0.282-0.951
			c0.107-0.363,0.188-0.865,0.245-1.504c0.056-0.637,0.097-1.105,0.122-1.4c0.024-0.297,0.099-0.443,0.218-0.443
			c0.189,0,0.376,0.098,0.56,0.295c0.185,0.197,0.276,0.395,0.276,0.592c0,0.754-0.282,1.996-0.849,3.727
			c0.959-1.799,1.564-2.865,1.813-3.201c0.247-0.332,0.462-0.604,0.643-0.809c0.335-0.369,0.673-0.553,1.016-0.553
			c0.205,0,0.452,0.178,0.739,0.533s0.431,0.715,0.431,1.074s-0.051,0.805-0.153,1.338
			C195.996,52.069,196.914,51.089,197.736,51.089z"/>
		<path fill="#5A5E5E" d="M204.782,53.216c0,0.459-0.247,0.832-0.739,1.119c-0.493,0.287-1.051,0.43-1.672,0.43
			s-1.186-0.066-1.69-0.205c-0.12,0.377-0.18,0.715-0.18,1.01s0.092,0.525,0.276,0.688c0.184,0.162,0.488,0.244,0.913,0.244
			c0.423,0,0.86-0.076,1.311-0.225c0.45-0.15,0.696-0.225,0.74-0.225c0.222,0,0.333,0.086,0.333,0.256
			c0,0.232-0.262,0.482-0.784,0.754c-0.522,0.27-1.032,0.404-1.529,0.404c-0.669,0-1.213-0.199-1.633-0.6
			c-0.421-0.398-0.631-0.9-0.631-1.51c0-0.607,0.163-1.244,0.488-1.908c0.327-0.664,0.746-1.225,1.261-1.678
			c0.515-0.455,1.023-0.682,1.53-0.682c0.506,0,0.966,0.24,1.383,0.721C204.573,52.288,204.782,52.759,204.782,53.216z
			 M202.841,52.104c-0.317,0-0.647,0.164-0.991,0.496c-0.343,0.328-0.633,0.738-0.873,1.227c0.343,0.076,0.732,0.115,1.17,0.115
			s0.818-0.07,1.144-0.211c0.327-0.143,0.489-0.328,0.489-0.561c0-0.23-0.105-0.467-0.315-0.705
			C203.253,52.224,203.046,52.104,202.841,52.104z"/>
		<path fill="#5A5E5E" d="M208.71,52.11c0.519-0.682,0.942-1.021,1.272-1.021s0.643,0.176,0.938,0.527s0.443,0.725,0.443,1.119
			c0,0.617-0.141,1.369-0.424,2.262c-0.514,1.645-0.978,2.469-1.389,2.469c-0.188,0-0.282-0.129-0.282-0.387
			c0-0.18,0.092-0.547,0.276-1.1s0.355-1.096,0.514-1.633c0.158-0.533,0.238-0.938,0.238-1.207s-0.041-0.471-0.122-0.598
			c-0.082-0.129-0.163-0.193-0.244-0.193s-0.165,0.027-0.251,0.078s-0.183,0.137-0.29,0.256c-0.106,0.119-0.207,0.238-0.301,0.354
			c-0.096,0.117-0.213,0.281-0.354,0.496c-0.141,0.213-0.259,0.396-0.354,0.545c-0.094,0.15-0.23,0.367-0.411,0.648
			c-0.18,0.283-0.317,0.498-0.412,0.645c-0.094,0.146-0.217,0.342-0.372,0.592c-0.154,0.248-0.276,0.441-0.367,0.578
			c-0.089,0.137-0.19,0.287-0.302,0.449c-0.214,0.316-0.384,0.477-0.507,0.477c-0.125,0-0.268-0.096-0.431-0.289
			c-0.164-0.193-0.245-0.363-0.245-0.508c0-0.043,0.03-0.16,0.091-0.348c0.162-0.498,0.342-1.113,0.54-1.844
			c0.196-0.734,0.303-1.566,0.321-2.502c0.025-0.625,0.116-0.938,0.269-0.938c0.189,0,0.377,0.098,0.567,0.295
			c0.188,0.197,0.282,0.414,0.282,0.648c0,0.236-0.071,0.689-0.213,1.363c-0.141,0.674-0.306,1.301-0.495,1.883
			C207.521,53.831,208.19,52.792,208.71,52.11z"/>
		<path fill="#5A5E5E" d="M214.365,57.466c-0.501,0-0.969-0.195-1.406-0.584c-0.438-0.391-0.656-0.854-0.656-1.391
			c0-0.533,0.18-1.154,0.539-1.857c0.36-0.701,0.826-1.303,1.396-1.799c0.568-0.496,1.125-0.746,1.664-0.746
			c0.353,0,0.661,0.158,0.926,0.475c0.265,0.318,0.399,0.598,0.399,0.836c0,0.07-0.022,0.127-0.064,0.174
			c-0.043,0.047-0.104,0.072-0.187,0.072c-0.081,0-0.226-0.078-0.432-0.232c-0.205-0.154-0.39-0.232-0.552-0.232
			c-0.463,0-1.004,0.408-1.62,1.223c-0.617,0.814-0.926,1.525-0.926,2.133c0,0.266,0.084,0.477,0.25,0.631
			c0.167,0.154,0.438,0.232,0.811,0.232s0.716-0.047,1.029-0.137c0.312-0.09,0.554-0.18,0.726-0.27s0.305-0.135,0.398-0.135
			c0.162,0,0.244,0.082,0.244,0.244c0,0.248-0.298,0.537-0.895,0.867C215.417,57.3,214.868,57.466,214.365,57.466z"/>
		<path fill="#5A5E5E" d="M223.141,53.216c0,0.459-0.247,0.832-0.739,1.119c-0.493,0.287-1.05,0.43-1.671,0.43
			c-0.622,0-1.186-0.066-1.69-0.205c-0.12,0.377-0.18,0.715-0.18,1.01s0.091,0.525,0.275,0.688s0.489,0.244,0.913,0.244
			s0.861-0.076,1.312-0.225c0.449-0.15,0.695-0.225,0.739-0.225c0.223,0,0.334,0.086,0.334,0.256c0,0.232-0.262,0.482-0.784,0.754
			c-0.522,0.27-1.033,0.404-1.529,0.404c-0.67,0-1.214-0.199-1.633-0.6c-0.421-0.398-0.631-0.9-0.631-1.51
			c0-0.607,0.163-1.244,0.488-1.908c0.326-0.664,0.746-1.225,1.261-1.678c0.515-0.455,1.023-0.682,1.529-0.682
			s0.967,0.24,1.382,0.721C222.933,52.288,223.141,52.759,223.141,53.216z M221.198,52.104c-0.315,0-0.646,0.164-0.989,0.496
			c-0.343,0.328-0.634,0.738-0.874,1.227c0.344,0.076,0.733,0.115,1.171,0.115s0.818-0.07,1.144-0.211
			c0.326-0.143,0.487-0.328,0.487-0.561c0-0.23-0.104-0.467-0.313-0.705C221.612,52.224,221.405,52.104,221.198,52.104z"/>
		<path fill="#5A5E5E" d="M229.504,57.466c-0.12,0-0.262-0.092-0.424-0.277c-0.163-0.184-0.244-0.357-0.244-0.52
			c0-0.164,0.135-0.721,0.404-1.672c0.271-0.951,0.541-2.098,0.812-3.439c0.27-1.342,0.405-2.568,0.405-3.684
			c0-0.256,0.093-0.385,0.282-0.385c0.137,0,0.304,0.125,0.501,0.379c0.198,0.252,0.296,0.5,0.296,0.738
			c0,1.055-0.231,2.561-0.694,4.514c1.02-1.381,1.945-2.07,2.776-2.07c0.403,0,0.744,0.197,1.022,0.592s0.419,0.863,0.419,1.408
			s-0.157,1.168-0.471,1.871c-0.313,0.701-0.734,1.305-1.266,1.805c-0.532,0.502-1.089,0.754-1.672,0.754s-1.157-0.297-1.723-0.889
			l-0.012,0.014C229.727,57.179,229.591,57.466,229.504,57.466z M231.549,56.476c0.558,0,1.104-0.379,1.64-1.139
			c0.535-0.758,0.803-1.557,0.803-2.396c0-0.506-0.154-0.76-0.463-0.76c-0.497,0-1.051,0.348-1.665,1.043
			c-0.613,0.693-1.143,1.521-1.587,2.48C230.68,56.22,231.103,56.476,231.549,56.476z"/>
		<path fill="#5A5E5E" d="M237.282,51.089c0.163,0,0.316,0.098,0.464,0.295c0.146,0.197,0.219,0.391,0.219,0.578
			c0,0.189-0.125,0.754-0.374,1.691c-0.247,0.938-0.561,1.99-0.938,3.156c-0.146,0.43-0.329,0.643-0.552,0.643
			c-0.12,0-0.224-0.049-0.31-0.148c-0.085-0.098-0.128-0.209-0.128-0.334c0-0.123,0.031-0.322,0.097-0.59
			c0.064-0.271,0.158-0.631,0.283-1.08c0.123-0.451,0.222-0.816,0.294-1.1c0.074-0.283,0.148-0.602,0.226-0.959
			c0.078-0.355,0.14-0.641,0.187-0.859s0.102-0.439,0.161-0.662C237.03,51.3,237.153,51.089,237.282,51.089z M237.348,49.263
			c0-0.172,0.067-0.334,0.204-0.488c0.138-0.154,0.277-0.23,0.419-0.23s0.311,0.174,0.507,0.52c0.197,0.348,0.297,0.637,0.297,0.869
			c0,0.084-0.039,0.162-0.116,0.23c-0.078,0.068-0.159,0.102-0.244,0.102c-0.206,0-0.436-0.123-0.688-0.371
			C237.474,49.646,237.348,49.435,237.348,49.263z"/>
		<path fill="#5A5E5E" d="M243.891,53.216c0,0.459-0.247,0.832-0.739,1.119c-0.493,0.287-1.05,0.43-1.672,0.43
			c-0.621,0-1.185-0.066-1.69-0.205c-0.12,0.377-0.18,0.715-0.18,1.01s0.092,0.525,0.276,0.688c0.184,0.162,0.488,0.244,0.913,0.244
			c0.424,0,0.861-0.076,1.312-0.225c0.449-0.15,0.695-0.225,0.739-0.225c0.222,0,0.333,0.086,0.333,0.256
			c0,0.232-0.261,0.482-0.784,0.754c-0.521,0.27-1.032,0.404-1.529,0.404c-0.669,0-1.213-0.199-1.633-0.6
			c-0.42-0.398-0.63-0.9-0.63-1.51c0-0.607,0.163-1.244,0.488-1.908c0.326-0.664,0.745-1.225,1.261-1.678
			c0.514-0.455,1.022-0.682,1.529-0.682c0.506,0,0.966,0.24,1.382,0.721C243.683,52.288,243.891,52.759,243.891,53.216z
			 M241.949,52.104c-0.317,0-0.647,0.164-0.99,0.496c-0.344,0.328-0.634,0.738-0.873,1.227c0.342,0.076,0.731,0.115,1.169,0.115
			s0.818-0.07,1.144-0.211c0.326-0.143,0.488-0.328,0.488-0.561c0-0.23-0.104-0.467-0.314-0.705
			C242.361,52.224,242.155,52.104,241.949,52.104z"/>
		<path fill="#5A5E5E" d="M247.818,52.11c0.52-0.682,0.942-1.021,1.272-1.021c0.331,0,0.643,0.176,0.939,0.527
			c0.295,0.352,0.443,0.725,0.443,1.119c0,0.617-0.142,1.369-0.425,2.262c-0.514,1.645-0.978,2.469-1.388,2.469
			c-0.189,0-0.283-0.129-0.283-0.387c0-0.18,0.092-0.547,0.275-1.1c0.186-0.553,0.356-1.096,0.515-1.633
			c0.159-0.533,0.238-0.938,0.238-1.207s-0.04-0.471-0.122-0.598c-0.081-0.129-0.163-0.193-0.243-0.193
			c-0.082,0-0.166,0.027-0.252,0.078s-0.182,0.137-0.289,0.256s-0.208,0.238-0.302,0.354c-0.096,0.117-0.213,0.281-0.354,0.496
			c-0.142,0.213-0.26,0.396-0.354,0.545c-0.093,0.15-0.23,0.367-0.41,0.648c-0.181,0.283-0.318,0.498-0.413,0.645
			c-0.094,0.146-0.218,0.342-0.372,0.592c-0.153,0.248-0.276,0.441-0.366,0.578s-0.191,0.287-0.303,0.449
			c-0.214,0.316-0.384,0.477-0.507,0.477c-0.124,0-0.268-0.096-0.432-0.289c-0.163-0.193-0.244-0.363-0.244-0.508
			c0-0.043,0.03-0.16,0.091-0.348c0.162-0.498,0.342-1.113,0.54-1.844c0.197-0.734,0.304-1.566,0.321-2.502
			c0.025-0.625,0.116-0.938,0.27-0.938c0.188,0,0.377,0.098,0.565,0.295c0.189,0.197,0.283,0.414,0.283,0.648
			c0,0.236-0.071,0.689-0.213,1.363c-0.141,0.674-0.306,1.301-0.495,1.883C246.629,53.831,247.3,52.792,247.818,52.11z"/>
		<path fill="#5A5E5E" d="M257.249,56.089c0.146-0.18,0.291-0.27,0.437-0.27s0.321,0.209,0.527,0.625
			c0.206,0.414,0.309,0.725,0.309,0.932c0,0.061-0.043,0.129-0.128,0.205c-0.087,0.078-0.168,0.117-0.244,0.117
			c-0.215,0-0.455-0.137-0.72-0.406c-0.268-0.27-0.398-0.492-0.398-0.668S257.103,56.271,257.249,56.089z M258.907,47.245
			c0.163,0,0.386,0.104,0.669,0.309c0.282,0.205,0.424,0.369,0.424,0.488c0,0.729-0.186,2.01-0.559,3.844
			c-0.374,1.834-0.671,2.752-0.895,2.752c-0.137,0-0.265-0.072-0.386-0.213c-0.12-0.143-0.18-0.289-0.18-0.443
			c-0.008-0.053,0.045-0.359,0.16-0.926c0.116-0.566,0.238-1.361,0.368-2.385c0.128-1.023,0.191-2.055,0.191-3.092
			C258.701,47.356,258.771,47.245,258.907,47.245z"/>
	</g>
	<g>
		<path fill="#0092C9" d="M42.606,0.944c-17.359,0-31.433,14.072-31.433,31.432c0,10.333,4.988,19.501,12.686,25.229
			c3.285-0.144,6.373-0.519,9.293-1.038c-1.135-0.965-3.594-3.062-6.025-5.196c-7.113-6.234-7.062-6.551-6.934-7.314
			c0.428-2.564,8.212-3.209,8.289-3.209c0.119,0,0.219,0.007,0.311,0.023c0.734,0.122,0.996,0.265,1.342,0.485l0.078,0.049
			c0.438,0.26,13.314,7.43,18.239,10.17l0.851,0.473c1.242-0.448,2.448-0.896,3.609-1.328c6.068-2.259,11.31-4.208,16.248-4.208
			c0.232,0,0.465,0.004,0.697,0.013c0.218,0.01,0.483,0.039,0.773,0.079c2.174-4.275,3.406-9.106,3.406-14.228
			C74.037,15.017,59.965,0.944,42.606,0.944L42.606,0.944z"/>
		<path fill="#1FACE1" d="M47.908,52.556c0,0-17.962-9.995-18.274-10.19c-0.31-0.19-0.39-0.281-1.024-0.388
			c-0.637-0.106-7.09,0.943-7.311,2.265c-0.125,0.742,13.227,12.021,13.227,12.021S43.653,54.134,47.908,52.556L47.908,52.556z"/>
		<path fill="#FFFFFF" d="M53.146,23.829c0-4.479-2.968-6.618-8.225-6.618h-7.59V30.69h7.59
			C50.179,30.69,53.146,28.452,53.146,23.829L53.146,23.829z M58.646,23.683c0,7.689-4.916,12.166-13.479,12.166h-7.835v8.926
			l-5.742-3.202V12.052h13.577C53.73,12.052,58.646,16.285,58.646,23.683L58.646,23.683z"/>
		<g>
			<path fill="#1FACE1" d="M70.133,47.33c-12.336-0.472-27.121,12.665-53.592,11.012L3.645,50.232L0,51.089
				c0,0,8.557,15.447,10.299,16.167c1.362,0.566,3.027,1.727,5.469,2.182c6.391,1.183,14.277,0.826,22.319-0.406
				c-1.639,6.876-4.82,19.033-4.82,19.033s-0.234,0.877,0.426,0.987c0.661,0.109,6.538-1.924,6.538-1.924s0.837-0.501,2.156-2.767
				c1.194-2.051,7.574-13.017,10.791-18.547c14.338-3.865,26.247-9.313,27.014-12.059C81.34,49.957,72.66,47.426,70.133,47.33
				L70.133,47.33z"/>
			<path fill="#FFFFFF" d="M69.238,49.635c0,0,1.684-0.344,3.66,0.34c1.688,0.582,2.242,1.026,2.242,1.026l-5.32,1.12L69.238,49.635
				L69.238,49.635z"/>
			<path fill="#FFFFFF" d="M20.367,62.311l-0.446,0.088c-0.265,0.056-0.525-0.12-0.577-0.386l-0.145-0.729
				c-0.053-0.265,0.123-0.524,0.388-0.574l0.446-0.09c0.266-0.054,0.525,0.122,0.577,0.386l0.144,0.729
				C20.807,61.999,20.633,62.259,20.367,62.311L20.367,62.311z"/>
			<path fill="#FFFFFF" d="M25.223,62.376l-0.446,0.088c-0.265,0.054-0.524-0.122-0.577-0.388l-0.144-0.727
				c-0.054-0.267,0.121-0.526,0.387-0.576l0.446-0.088c0.266-0.056,0.525,0.122,0.577,0.386l0.144,0.727
				C25.662,62.064,25.488,62.324,25.223,62.376L25.223,62.376z"/>
			<path fill="#FFFFFF" d="M30.242,61.999l-0.484,0.095c-0.289,0.056-0.572-0.133-0.629-0.422l-0.156-0.79
				c-0.057-0.289,0.133-0.571,0.422-0.629l0.485-0.096c0.288-0.056,0.571,0.132,0.628,0.423l0.156,0.791
				C30.721,61.66,30.531,61.944,30.242,61.999L30.242,61.999z"/>
			<path fill="#FFFFFF" d="M35.844,61.503l-0.516,0.102c-0.309,0.061-0.608-0.141-0.67-0.449l-0.166-0.844
				c-0.061-0.308,0.142-0.607,0.449-0.67l0.518-0.102c0.307-0.06,0.607,0.142,0.668,0.45l0.167,0.844
				C36.353,61.142,36.15,61.441,35.844,61.503L35.844,61.503z"/>
			<path fill="#FFFFFF" d="M41.273,60.499l-0.551,0.109c-0.328,0.063-0.648-0.152-0.715-0.479l-0.176-0.9
				c-0.064-0.327,0.15-0.648,0.479-0.714l0.551-0.107c0.328-0.065,0.648,0.15,0.714,0.479l0.177,0.899
				C41.816,60.114,41.602,60.436,41.273,60.499L41.273,60.499z"/>
			<path fill="#FFFFFF" d="M45.938,59.616l-0.58,0.115c-0.337,0.067-0.666-0.155-0.732-0.49l-0.186-0.94
				c-0.067-0.338,0.154-0.668,0.492-0.733l0.58-0.113c0.336-0.067,0.666,0.153,0.732,0.49l0.186,0.94
				C46.496,59.222,46.275,59.551,45.938,59.616L45.938,59.616z"/>
			<path fill="#FFFFFF" d="M51.035,58.392l-0.643,0.128c-0.336,0.065-0.666-0.156-0.732-0.494l-0.201-1.011
				c-0.065-0.339,0.155-0.67,0.492-0.733l0.641-0.129c0.338-0.065,0.666,0.154,0.734,0.494l0.199,1.012
				C51.592,57.994,51.372,58.325,51.035,58.392L51.035,58.392z"/>
			<path fill="#FFFFFF" d="M55.938,56.931l-0.642,0.127c-0.336,0.067-0.667-0.155-0.733-0.492l-0.199-1.013
				c-0.066-0.337,0.153-0.666,0.49-0.733l0.643-0.127c0.336-0.065,0.666,0.154,0.732,0.492l0.2,1.014
				C56.496,56.536,56.275,56.865,55.938,56.931L55.938,56.931z"/>
			<path fill="#FFFFFF" d="M60.73,54.849l-0.643,0.126c-0.336,0.067-0.666-0.155-0.732-0.491l-0.201-1.014
				c-0.066-0.338,0.154-0.666,0.492-0.733l0.641-0.126c0.338-0.067,0.666,0.155,0.733,0.491l0.2,1.014
				C61.287,54.453,61.065,54.781,60.73,54.849L60.73,54.849z"/>
			<path fill="#FFFFFF" d="M65.637,53.039l-0.643,0.128c-0.336,0.065-0.664-0.155-0.732-0.493l-0.199-1.014
				c-0.066-0.336,0.154-0.666,0.491-0.731l0.642-0.128c0.336-0.065,0.666,0.155,0.733,0.492l0.2,1.013
				C66.193,52.644,65.973,52.974,65.637,53.039L65.637,53.039z"/>
		</g>
	</g>
</g>
</svg>
